<svg width="470" height="430" viewBox="0 0 470 430" fill="none" xmlns="http://www.w3.org/2000/svg">
<g clip-path="url(#clip0_105_9704)">
<rect width="469.692" height="430" rx="33.0769" fill="white"/>
<path d="M229.885 90.9614C259.722 90.9614 288.871 99.9287 313.549 116.7L292.633 147.477C274.124 134.898 252.263 128.173 229.885 128.173V90.9614Z" fill="#6B63FF"/>
<path d="M317.389 119.399C341.526 136.94 359.834 161.33 369.937 189.405L334.924 202.005C327.346 180.949 313.615 162.657 295.513 149.501L317.389 119.399Z" fill="#6B63FF"/>
<path d="M371.227 193.144C380.581 221.478 381.204 251.968 373.015 280.66L337.232 270.447C343.374 248.928 342.907 226.06 335.892 204.81L371.227 193.144Z" fill="#6B63FF"/>
<path d="M371.714 284.971C362.66 313.402 345.271 338.455 321.803 356.881L298.823 327.613C316.425 313.793 329.466 295.003 336.256 273.68L371.714 284.971Z" fill="#6B63FF"/>
<path d="M318.112 359.687C294.082 377.373 265.29 387.428 235.474 388.549L234.077 351.363C256.439 350.523 278.032 342.982 296.055 329.717L318.112 359.687Z" fill="#DFDCFF"/>
<path d="M229.885 388.654C200.047 388.654 170.899 379.686 146.221 362.915L167.137 332.138C185.645 344.717 207.507 351.442 229.885 351.442V388.654Z" fill="#DFDCFF"/>
<path d="M143.176 360.79C118.924 343.408 100.456 319.139 90.1672 291.132L125.097 278.301C132.813 299.306 146.664 317.508 164.853 330.544L143.176 360.79Z" fill="#DFDCFF"/>
<path d="M88.6337 286.747C79.2243 258.432 78.5418 227.943 86.6748 199.235L122.477 209.379C116.378 230.909 116.889 253.776 123.946 275.012L88.6337 286.747Z" fill="#DFDCFF"/>
<path d="M87.9437 194.998C96.9261 166.545 114.253 141.448 137.675 122.964L160.727 152.175C143.161 166.038 130.166 184.86 123.429 206.2L87.9437 194.998Z" fill="#DFDCFF"/>
<path d="M141.566 119.995C165.583 102.291 194.367 92.2138 224.182 91.0707L225.608 128.255C203.246 129.112 181.658 136.67 163.646 149.949L141.566 119.995Z" fill="#DFDCFF"/>
<g clip-path="url(#clip1_105_9704)">
<path d="M377.077 59.5383C382.557 59.5383 387 55.0956 387 49.6152C387 44.1349 382.557 39.6921 377.077 39.6921C371.597 39.6921 367.154 44.1349 367.154 49.6152C367.154 55.0956 371.597 59.5383 377.077 59.5383Z" stroke="#9390C5" stroke-width="2.48077" stroke-linecap="round" stroke-linejoin="round"/>
<path d="M377.077 45.2051H377.087" stroke="#9390C5" stroke-width="2.48077" stroke-linecap="round" stroke-linejoin="round"/>
<path d="M375.974 49.6152H377.077V54.0255H378.179" stroke="#9390C5" stroke-width="2.48077" stroke-linecap="round" stroke-linejoin="round"/>
</g>
<path d="M114.329 57.6921L110.67 40.813H114.051L115.787 49.7272L116.621 54.3348H116.783L119.886 40.813H123.683L126.832 54.3811H126.994L127.781 49.7504L129.471 40.813H132.852L129.193 57.6921H124.956L121.854 44.8649H121.692L118.543 57.6921H114.329ZM134.58 57.6921V40.813H137.474V47.7128H137.613C137.968 46.8484 138.508 46.2078 139.234 45.7911C139.959 45.3589 140.77 45.1428 141.665 45.1428C142.282 45.1428 142.853 45.2431 143.378 45.4438C143.919 45.629 144.382 45.93 144.767 46.3468C145.169 46.7481 145.478 47.2806 145.694 47.9444C145.925 48.5927 146.041 49.3799 146.041 50.3061V57.6921H143.147V50.9312C143.147 50.1594 143.054 49.5265 142.869 49.0326C142.684 48.5232 142.398 48.145 142.012 47.8981C141.642 47.6511 141.155 47.5276 140.553 47.5276C139.905 47.5276 139.349 47.682 138.886 47.9907C138.439 48.2994 138.091 48.7084 137.844 49.2178C137.598 49.7272 137.474 50.2906 137.474 50.9081V57.6921H134.58ZM154.307 57.9005C153.042 57.9005 151.961 57.6381 151.066 57.1133C150.171 56.5885 149.476 55.8553 148.982 54.9137C148.504 53.9721 148.264 52.8684 148.264 51.6027C148.264 50.2906 148.504 49.1561 148.982 48.1991C149.461 47.2266 150.147 46.478 151.043 45.9531C151.938 45.4129 152.988 45.1428 154.192 45.1428C155.596 45.1428 156.746 45.4515 157.642 46.0689C158.537 46.6863 159.177 47.5199 159.563 48.5695C159.965 49.6192 160.096 50.8154 159.957 52.1584H151.112C151.112 52.8993 151.243 53.5322 151.506 54.057C151.784 54.5818 152.162 54.9831 152.64 55.261C153.119 55.5388 153.675 55.6778 154.307 55.6778C155.048 55.6778 155.673 55.5157 156.183 55.1915C156.692 54.8519 157.016 54.4043 157.155 53.8486H159.911C159.803 54.6513 159.494 55.3613 158.984 55.9788C158.475 56.5808 157.819 57.0515 157.016 57.3911C156.214 57.7307 155.311 57.9005 154.307 57.9005ZM151.112 50.5839L150.857 50.2134H157.41L157.132 50.5839C157.163 49.843 157.047 49.241 156.785 48.7779C156.538 48.2994 156.183 47.9444 155.72 47.7128C155.272 47.4813 154.763 47.3655 154.192 47.3655C153.574 47.3655 153.034 47.4967 152.571 47.7591C152.123 48.0215 151.768 48.392 151.506 48.8705C151.259 49.349 151.128 49.9202 151.112 50.5839ZM167.852 57.9005C166.586 57.9005 165.505 57.6381 164.61 57.1133C163.715 56.5885 163.02 55.8553 162.526 54.9137C162.048 53.9721 161.808 52.8684 161.808 51.6027C161.808 50.2906 162.048 49.1561 162.526 48.1991C163.005 47.2266 163.692 46.478 164.587 45.9531C165.482 45.4129 166.532 45.1428 167.736 45.1428C169.14 45.1428 170.29 45.4515 171.186 46.0689C172.081 46.6863 172.722 47.5199 173.107 48.5695C173.509 49.6192 173.64 50.8154 173.501 52.1584H164.656C164.656 52.8993 164.787 53.5322 165.05 54.057C165.328 54.5818 165.706 54.9831 166.184 55.261C166.663 55.5388 167.219 55.6778 167.852 55.6778C168.592 55.6778 169.218 55.5157 169.727 55.1915C170.236 54.8519 170.561 54.4043 170.699 53.8486H173.455C173.347 54.6513 173.038 55.3613 172.529 55.9788C172.019 56.5808 171.363 57.0515 170.561 57.3911C169.758 57.7307 168.855 57.9005 167.852 57.9005ZM164.656 50.5839L164.402 50.2134H170.954L170.676 50.5839C170.707 49.843 170.591 49.241 170.329 48.7779C170.082 48.2994 169.727 47.9444 169.264 47.7128C168.816 47.4813 168.307 47.3655 167.736 47.3655C167.118 47.3655 166.578 47.4967 166.115 47.7591C165.667 48.0215 165.312 48.392 165.05 48.8705C164.803 49.349 164.672 49.9202 164.656 50.5839ZM175.89 57.6921V40.813H178.785V57.6921H175.89ZM192.296 57.9005C191.37 57.9005 190.536 57.7616 189.795 57.4838C189.054 57.1905 188.406 56.766 187.85 56.2103C187.31 55.6546 186.893 54.9831 186.6 54.1959C186.322 53.4087 186.183 52.5211 186.183 51.5332C186.183 50.2675 186.422 49.1561 186.901 48.1991C187.395 47.242 188.097 46.4934 189.008 45.9531C189.919 45.4129 191.015 45.1428 192.296 45.1428C193.207 45.1428 194.032 45.2894 194.773 45.5827C195.514 45.876 196.147 46.3004 196.672 46.8561C197.212 47.4118 197.629 48.0833 197.922 48.8705C198.216 49.6423 198.362 50.5299 198.362 51.5332C198.362 52.7835 198.115 53.8872 197.621 54.8442C197.143 55.8012 196.448 56.5499 195.537 57.0901C194.642 57.6304 193.562 57.9005 192.296 57.9005ZM192.273 55.5157C192.906 55.5157 193.461 55.369 193.94 55.0758C194.418 54.767 194.789 54.3194 195.051 53.7328C195.314 53.1308 195.445 52.3976 195.445 51.5332C195.445 50.8849 195.368 50.3138 195.213 49.8198C195.074 49.3104 194.866 48.886 194.588 48.5464C194.31 48.2068 193.978 47.9521 193.592 47.7823C193.207 47.6125 192.774 47.5276 192.296 47.5276C191.663 47.5276 191.1 47.682 190.606 47.9907C190.127 48.284 189.757 48.7316 189.494 49.3336C189.232 49.9202 189.101 50.6534 189.101 51.5332C189.101 52.1815 189.17 52.7604 189.309 53.2698C189.463 53.7637 189.679 54.1805 189.957 54.5201C190.235 54.8442 190.567 55.0912 190.953 55.261C191.354 55.4308 191.794 55.5157 192.273 55.5157ZM201.644 57.6921V47.7128H199.514V45.3743H201.644V43.7998C201.644 42.8274 201.945 42.0864 202.547 41.5771C203.149 41.0677 203.975 40.813 205.025 40.813H207.363V42.8274H205.835C205.326 42.8274 204.978 42.9354 204.793 43.1515C204.623 43.3676 204.538 43.6609 204.538 44.0314V45.3743H207.132V47.7128H204.538V57.6921H201.644ZM221.836 57.9005C220.57 57.9005 219.42 57.7076 218.386 57.3217C217.367 56.9203 216.488 56.3492 215.747 55.6083C215.006 54.8674 214.435 53.9644 214.033 52.8993C213.632 51.8188 213.431 50.5993 213.431 49.241C213.431 47.8826 213.632 46.6709 214.033 45.6058C214.435 44.5408 215.006 43.6378 215.747 42.8968C216.488 42.1559 217.367 41.5925 218.386 41.2066C219.42 40.8053 220.57 40.6046 221.836 40.6046C223.102 40.6046 224.244 40.8053 225.263 41.2066C226.297 41.5925 227.185 42.1636 227.926 42.92C228.682 43.6609 229.253 44.5639 229.639 45.629C230.04 46.6786 230.241 47.8826 230.241 49.241C230.241 50.5993 230.04 51.8188 229.639 52.8993C229.238 53.9644 228.667 54.8674 227.926 55.6083C227.185 56.3492 226.297 56.9203 225.263 57.3217C224.244 57.7076 223.102 57.9005 221.836 57.9005ZM221.836 55.261C222.917 55.261 223.851 55.0294 224.638 54.5664C225.425 54.1033 226.027 53.4241 226.444 52.5288C226.876 51.6335 227.092 50.5376 227.092 49.241C227.092 48.2685 226.969 47.4118 226.722 46.6709C226.475 45.93 226.12 45.3048 225.657 44.7954C225.209 44.2861 224.661 43.9002 224.013 43.6378C223.364 43.3753 222.639 43.2441 221.836 43.2441C220.771 43.2441 219.845 43.4757 219.058 43.9388C218.27 44.3864 217.661 45.0579 217.229 45.9531C216.812 46.8484 216.603 47.9444 216.603 49.241C216.603 50.2134 216.727 51.0779 216.974 51.8342C217.221 52.5906 217.568 53.2234 218.016 53.7328C218.479 54.2422 219.027 54.6281 219.66 54.8905C220.308 55.1375 221.033 55.261 221.836 55.261ZM232.667 61.5588L232.69 45.3743H235.469L235.561 47.6434H235.747C236.04 46.9024 236.534 46.3004 237.228 45.8374C237.938 45.3743 238.795 45.1428 239.798 45.1428C240.539 45.1428 241.211 45.2817 241.813 45.5595C242.43 45.8219 242.955 46.2233 243.387 46.7635C243.835 47.3038 244.175 47.9752 244.406 48.7779C244.653 49.5651 244.777 50.4836 244.777 51.5332C244.777 52.9224 244.568 54.0956 244.151 55.0526C243.735 55.9942 243.148 56.712 242.392 57.2059C241.651 57.6844 240.786 57.9237 239.798 57.9237C239.135 57.9237 238.533 57.8233 237.992 57.6227C237.452 57.4066 236.989 57.1133 236.603 56.7428C236.233 56.3569 235.947 55.917 235.747 55.4231H235.561V61.5588H232.667ZM238.733 55.562C239.351 55.562 239.891 55.4153 240.354 55.1221C240.817 54.8133 241.172 54.3657 241.419 53.7791C241.682 53.1771 241.813 52.4285 241.813 51.5332C241.813 50.6225 241.682 49.8739 241.419 49.2873C241.172 48.6853 240.817 48.2377 240.354 47.9444C239.891 47.6511 239.351 47.5044 238.733 47.5044C238.039 47.5044 237.46 47.6665 236.997 47.9907C236.534 48.3148 236.186 48.7316 235.955 49.241C235.723 49.7504 235.608 50.2983 235.608 50.8849V52.1815C235.608 52.6137 235.669 53.0305 235.793 53.4318C235.932 53.8332 236.125 54.1959 236.372 54.5201C236.634 54.8288 236.958 55.0835 237.344 55.2841C237.746 55.4694 238.209 55.562 238.733 55.562ZM247.093 61.5588L247.116 45.3743H249.895L249.987 47.6434H250.172C250.466 46.9024 250.96 46.3004 251.654 45.8374C252.364 45.3743 253.221 45.1428 254.224 45.1428C254.965 45.1428 255.637 45.2817 256.239 45.5595C256.856 45.8219 257.381 46.2233 257.813 46.7635C258.261 47.3038 258.6 47.9752 258.832 48.7779C259.079 49.5651 259.202 50.4836 259.202 51.5332C259.202 52.9224 258.994 54.0956 258.577 55.0526C258.161 55.9942 257.574 56.712 256.818 57.2059C256.077 57.6844 255.212 57.9237 254.224 57.9237C253.561 57.9237 252.959 57.8233 252.418 57.6227C251.878 57.4066 251.415 57.1133 251.029 56.7428C250.659 56.3569 250.373 55.917 250.172 55.4231H249.987V61.5588H247.093ZM253.159 55.562C253.777 55.562 254.317 55.4153 254.78 55.1221C255.243 54.8133 255.598 54.3657 255.845 53.7791C256.108 53.1771 256.239 52.4285 256.239 51.5332C256.239 50.6225 256.108 49.8739 255.845 49.2873C255.598 48.6853 255.243 48.2377 254.78 47.9444C254.317 47.6511 253.777 47.5044 253.159 47.5044C252.465 47.5044 251.886 47.6665 251.423 47.9907C250.96 48.3148 250.612 48.7316 250.381 49.241C250.149 49.7504 250.034 50.2983 250.034 50.8849V52.1815C250.034 52.6137 250.095 53.0305 250.219 53.4318C250.358 53.8332 250.551 54.1959 250.798 54.5201C251.06 54.8288 251.384 55.0835 251.77 55.2841C252.171 55.4694 252.635 55.562 253.159 55.562ZM267.094 57.9005C266.167 57.9005 265.334 57.7616 264.593 57.4838C263.852 57.1905 263.204 56.766 262.648 56.2103C262.108 55.6546 261.691 54.9831 261.398 54.1959C261.12 53.4087 260.981 52.5211 260.981 51.5332C260.981 50.2675 261.22 49.1561 261.699 48.1991C262.193 47.242 262.895 46.4934 263.806 45.9531C264.716 45.4129 265.812 45.1428 267.094 45.1428C268.004 45.1428 268.83 45.2894 269.571 45.5827C270.312 45.876 270.945 46.3004 271.47 46.8561C272.01 47.4118 272.427 48.0833 272.72 48.8705C273.013 49.6423 273.16 50.5299 273.16 51.5332C273.16 52.7835 272.913 53.8872 272.419 54.8442C271.94 55.8012 271.246 56.5499 270.335 57.0901C269.44 57.6304 268.359 57.9005 267.094 57.9005ZM267.07 55.5157C267.703 55.5157 268.259 55.369 268.738 55.0758C269.216 54.767 269.587 54.3194 269.849 53.7328C270.111 53.1308 270.243 52.3976 270.243 51.5332C270.243 50.8849 270.165 50.3138 270.011 49.8198C269.872 49.3104 269.664 48.886 269.386 48.5464C269.108 48.2068 268.776 47.9521 268.39 47.7823C268.004 47.6125 267.572 47.5276 267.094 47.5276C266.461 47.5276 265.897 47.682 265.403 47.9907C264.925 48.284 264.554 48.7316 264.292 49.3336C264.03 49.9202 263.898 50.6534 263.898 51.5332C263.898 52.1815 263.968 52.7604 264.107 53.2698C264.261 53.7637 264.477 54.1805 264.755 54.5201C265.033 54.8442 265.365 55.0912 265.751 55.261C266.152 55.4308 266.592 55.5157 267.07 55.5157ZM275.493 57.6921V45.3743H278.109L278.248 47.435H278.341C278.618 46.6478 279.066 46.0843 279.684 45.7448C280.316 45.3897 281.034 45.2122 281.837 45.2122C281.976 45.2122 282.099 45.2122 282.207 45.2122C282.331 45.2122 282.447 45.2122 282.555 45.2122V47.9444C282.462 47.9444 282.346 47.9444 282.207 47.9444C282.084 47.9289 281.945 47.9212 281.791 47.9212C281.05 47.9212 280.432 48.0447 279.938 48.2917C279.444 48.5232 279.066 48.8628 278.804 49.3104C278.557 49.7581 278.418 50.3061 278.387 50.9544V57.6921H275.493ZM288.753 57.9005C287.812 57.9005 287.009 57.7153 286.345 57.3448C285.682 56.9744 285.18 56.4264 284.84 55.7009C284.501 54.96 284.331 54.0647 284.331 53.0151V45.3743H287.225V52.251C287.225 52.9456 287.318 53.5399 287.503 54.0338C287.688 54.5123 287.974 54.8828 288.36 55.1452C288.746 55.4076 289.247 55.5388 289.865 55.5388C290.482 55.5388 291.015 55.3845 291.462 55.0758C291.925 54.767 292.28 54.358 292.527 53.8486C292.774 53.3238 292.898 52.7372 292.898 52.0889V45.3743H295.792V57.6921H293.014L292.898 55.3073H292.759C292.45 56.1408 291.933 56.7814 291.208 57.2291C290.498 57.6767 289.679 57.9005 288.753 57.9005ZM298.782 57.6921V45.3743H301.561L301.676 47.7128H301.815C302.17 46.8484 302.711 46.2078 303.436 45.7911C304.162 45.3589 304.972 45.1428 305.867 45.1428C306.485 45.1428 307.056 45.2431 307.581 45.4438C308.121 45.629 308.584 45.93 308.97 46.3468C309.371 46.7481 309.68 47.2806 309.896 47.9444C310.128 48.5927 310.243 49.3799 310.243 50.3061V57.6921H307.349V50.9312C307.349 50.1594 307.256 49.5265 307.071 49.0326C306.886 48.5232 306.6 48.145 306.215 47.8981C305.844 47.6511 305.358 47.5276 304.756 47.5276C304.108 47.5276 303.552 47.682 303.089 47.9907C302.641 48.2994 302.294 48.7084 302.047 49.2178C301.8 49.7272 301.676 50.2906 301.676 50.9081V57.6921H298.782ZM313.231 57.6921V45.3743H316.125V57.6921H313.231ZM313.231 43.6378V40.813H316.125V43.6378H313.231ZM323.066 57.6921C322.309 57.6921 321.715 57.5841 321.283 57.368C320.866 57.1364 320.573 56.8123 320.403 56.3955C320.233 55.9788 320.148 55.4771 320.148 54.8905V47.7128H317.879V45.3743H320.148V41.9012L323.019 41.6002V45.3743H325.636V47.7128H323.019V54.358C323.019 54.7439 323.104 55.0063 323.274 55.1452C323.444 55.2687 323.706 55.3304 324.061 55.3304H325.636V57.6921H323.066ZM327.86 57.6921V45.3743H330.754V57.6921H327.86ZM327.86 43.6378V40.813H330.754V43.6378H327.86ZM339.154 57.9005C337.888 57.9005 336.808 57.6381 335.912 57.1133C335.017 56.5885 334.322 55.8553 333.828 54.9137C333.35 53.9721 333.111 52.8684 333.111 51.6027C333.111 50.2906 333.35 49.1561 333.828 48.1991C334.307 47.2266 334.994 46.478 335.889 45.9531C336.784 45.4129 337.834 45.1428 339.038 45.1428C340.443 45.1428 341.593 45.4515 342.488 46.0689C343.383 46.6863 344.024 47.5199 344.41 48.5695C344.811 49.6192 344.942 50.8154 344.803 52.1584H335.959C335.959 52.8993 336.09 53.5322 336.352 54.057C336.63 54.5818 337.008 54.9831 337.487 55.261C337.965 55.5388 338.521 55.6778 339.154 55.6778C339.895 55.6778 340.52 55.5157 341.029 55.1915C341.539 54.8519 341.863 54.4043 342.002 53.8486H344.757C344.649 54.6513 344.34 55.3613 343.831 55.9788C343.322 56.5808 342.665 57.0515 341.863 57.3911C341.06 57.7307 340.157 57.9005 339.154 57.9005ZM335.959 50.5839L335.704 50.2134H342.256L341.979 50.5839C342.009 49.843 341.894 49.241 341.631 48.7779C341.384 48.2994 341.029 47.9444 340.566 47.7128C340.119 47.4813 339.609 47.3655 339.038 47.3655C338.421 47.3655 337.88 47.4967 337.417 47.7591C336.97 48.0215 336.615 48.392 336.352 48.8705C336.105 49.349 335.974 49.9202 335.959 50.5839ZM351.986 57.9237C350.241 57.9237 348.891 57.5455 347.934 56.7891C346.992 56.0328 346.529 55.0449 346.544 53.8254H349.392C349.408 54.5664 349.662 55.1066 350.156 55.4462C350.65 55.7704 351.283 55.9324 352.055 55.9324C352.842 55.9324 353.437 55.7935 353.838 55.5157C354.255 55.2224 354.463 54.8365 354.463 54.358C354.463 53.9412 354.363 53.6248 354.162 53.4087C353.961 53.1771 353.66 53.0073 353.259 52.8993C352.858 52.7758 352.341 52.6755 351.708 52.5983C351.013 52.4902 350.373 52.3668 349.786 52.2278C349.199 52.0735 348.69 51.8651 348.258 51.6027C347.826 51.3403 347.486 50.993 347.239 50.5608C346.992 50.1285 346.869 49.5883 346.869 48.94C346.869 48.1064 347.085 47.4118 347.517 46.8561C347.965 46.285 348.574 45.8605 349.346 45.5827C350.118 45.2894 351.021 45.1428 352.055 45.1428C353.089 45.1428 353.985 45.2971 354.741 45.6058C355.497 45.9145 356.076 46.3545 356.477 46.9256C356.894 47.4967 357.11 48.1913 357.126 49.0094H354.301C354.286 48.5772 354.177 48.2299 353.977 47.9675C353.792 47.6897 353.529 47.4813 353.19 47.3424C352.85 47.2034 352.449 47.134 351.986 47.134C351.26 47.134 350.704 47.2729 350.318 47.5508C349.948 47.8286 349.763 48.1913 349.763 48.639C349.763 48.994 349.863 49.2796 350.064 49.4957C350.264 49.7118 350.573 49.8816 350.99 50.0051C351.407 50.1131 351.939 50.2134 352.588 50.3061C353.22 50.3832 353.822 50.4913 354.394 50.6302C354.98 50.7691 355.497 50.9698 355.945 51.2322C356.393 51.4946 356.74 51.8574 356.987 52.3204C357.249 52.7681 357.38 53.3547 357.38 54.0801C357.38 55.3922 356.894 56.3647 355.922 56.9975C354.965 57.615 353.653 57.9237 351.986 57.9237Z" fill="#2B276C"/>
<path d="M205.803 227.664C203.173 227.664 200.913 227.199 199.021 226.269C197.161 225.339 195.718 224.04 194.692 222.373C193.698 220.673 193.169 218.701 193.105 216.457H200.127C200.127 217.515 200.352 218.429 200.8 219.198C201.281 219.968 201.939 220.577 202.772 221.026C203.638 221.443 204.648 221.651 205.803 221.651C206.957 221.651 207.951 221.443 208.785 221.026C209.618 220.609 210.26 220.032 210.709 219.295C211.19 218.557 211.43 217.675 211.43 216.649C211.43 215.912 211.302 215.27 211.045 214.725C210.821 214.18 210.484 213.715 210.035 213.33C209.618 212.946 209.105 212.657 208.496 212.465C207.919 212.272 207.262 212.176 206.524 212.176H202.195V206.885H205.947C207.037 206.885 207.951 206.693 208.688 206.308C209.426 205.923 209.971 205.394 210.324 204.721C210.709 204.048 210.901 203.294 210.901 202.46C210.901 201.53 210.693 200.745 210.276 200.104C209.859 199.462 209.266 198.981 208.496 198.661C207.759 198.308 206.877 198.131 205.851 198.131C204.76 198.131 203.815 198.34 203.013 198.757C202.211 199.174 201.586 199.751 201.137 200.488C200.72 201.226 200.496 202.124 200.464 203.182H193.393C193.457 200.905 194.019 198.949 195.077 197.314C196.135 195.678 197.61 194.412 199.502 193.514C201.394 192.584 203.622 192.119 206.187 192.119C207.983 192.119 209.602 192.344 211.045 192.793C212.52 193.209 213.771 193.835 214.797 194.668C215.855 195.47 216.673 196.448 217.25 197.602C217.827 198.757 218.116 200.039 218.116 201.45C218.116 202.669 217.907 203.791 217.49 204.817C217.074 205.843 216.496 206.725 215.759 207.462C215.021 208.2 214.156 208.761 213.162 209.146V209.434C214.348 209.755 215.342 210.284 216.144 211.022C216.945 211.759 217.555 212.673 217.971 213.763C218.42 214.821 218.645 216.008 218.645 217.323C218.645 219.407 218.1 221.235 217.009 222.806C215.919 224.345 214.412 225.547 212.488 226.413C210.564 227.247 208.336 227.664 205.803 227.664ZM235.972 227.664C233.407 227.664 231.195 227.215 229.335 226.317C227.475 225.387 226.016 224.104 224.958 222.469C223.932 220.802 223.387 218.878 223.323 216.697H230.489C230.521 217.659 230.762 218.509 231.211 219.246C231.692 219.952 232.333 220.513 233.135 220.93C233.968 221.315 234.93 221.507 236.02 221.507C237.816 221.507 239.211 220.978 240.205 219.92C241.231 218.83 241.744 217.435 241.744 215.735C241.744 214.549 241.504 213.507 241.023 212.609C240.574 211.711 239.916 211.022 239.051 210.541C238.185 210.028 237.159 209.771 235.972 209.771C234.594 209.771 233.455 210.092 232.557 210.733C231.692 211.342 231.082 212.128 230.73 213.09H223.996L224.91 192.552H246.843V198.709H231.163L230.826 205.971L231.114 206.068C231.788 205.394 232.702 204.865 233.856 204.48C235.01 204.096 236.229 203.903 237.512 203.903C239.275 203.903 240.846 204.192 242.225 204.769C243.636 205.314 244.838 206.116 245.832 207.174C246.826 208.2 247.58 209.434 248.093 210.877C248.638 212.288 248.911 213.843 248.911 215.543C248.911 217.948 248.382 220.064 247.323 221.892C246.297 223.72 244.806 225.146 242.85 226.173C240.926 227.167 238.634 227.664 235.972 227.664ZM265.793 227.567C263.741 227.567 261.897 227.167 260.262 226.365C258.659 225.531 257.28 224.345 256.125 222.806C255.003 221.235 254.137 219.359 253.528 217.178C252.951 214.998 252.662 212.529 252.662 209.771C252.662 206.917 252.967 204.4 253.576 202.22C254.218 200.039 255.115 198.196 256.27 196.689C257.456 195.181 258.867 194.043 260.502 193.274C262.138 192.504 263.949 192.119 265.937 192.119C267.99 192.119 269.817 192.536 271.421 193.37C273.024 194.171 274.387 195.342 275.509 196.881C276.663 198.42 277.529 200.28 278.106 202.46C278.683 204.641 278.972 207.11 278.972 209.867C278.972 212.689 278.651 215.206 278.01 217.419C277.401 219.631 276.503 221.491 275.316 222.998C274.162 224.505 272.783 225.643 271.18 226.413C269.577 227.183 267.781 227.567 265.793 227.567ZM265.841 221.603C266.739 221.603 267.557 221.427 268.294 221.074C269.032 220.689 269.673 220.048 270.218 219.15C270.763 218.252 271.18 217.05 271.469 215.543C271.789 214.004 271.95 212.096 271.95 209.819C271.95 207.543 271.789 205.651 271.469 204.144C271.18 202.605 270.763 201.402 270.218 200.536C269.673 199.639 269.032 199.013 268.294 198.661C267.557 198.276 266.739 198.083 265.841 198.083C264.943 198.083 264.11 198.276 263.34 198.661C262.603 199.013 261.961 199.639 261.416 200.536C260.871 201.402 260.454 202.589 260.166 204.096C259.877 205.603 259.733 207.511 259.733 209.819C259.733 212.096 259.877 214.004 260.166 215.543C260.454 217.05 260.871 218.252 261.416 219.15C261.961 220.048 262.603 220.689 263.34 221.074C264.11 221.427 264.943 221.603 265.841 221.603Z" fill="#29277E"/>
<path d="M174.975 266.996C173.679 266.996 172.603 266.796 171.748 266.395C170.893 265.994 170.252 265.44 169.824 264.732C169.397 264.01 169.176 263.182 169.163 262.247H171.408C171.421 262.861 171.555 263.402 171.808 263.87C172.076 264.324 172.47 264.672 172.991 264.912C173.512 265.153 174.187 265.273 175.015 265.273C176.044 265.273 176.865 265.086 177.48 264.712C178.108 264.338 178.422 263.763 178.422 262.988C178.422 262.547 178.355 262.18 178.221 261.886C178.088 261.592 177.867 261.351 177.56 261.164C177.266 260.964 176.872 260.797 176.378 260.663C175.883 260.53 175.282 260.403 174.574 260.283C173.732 260.136 172.991 259.962 172.35 259.762C171.722 259.548 171.194 259.287 170.766 258.98C170.352 258.659 170.038 258.272 169.824 257.818C169.611 257.363 169.504 256.829 169.504 256.214C169.504 255.359 169.717 254.618 170.145 253.99C170.573 253.362 171.187 252.881 171.989 252.547C172.79 252.213 173.752 252.046 174.875 252.046C175.997 252.046 176.952 252.226 177.74 252.587C178.529 252.934 179.137 253.429 179.564 254.07C179.992 254.698 180.212 255.446 180.226 256.315H178.001C177.988 255.727 177.841 255.246 177.56 254.872C177.293 254.484 176.919 254.197 176.438 254.01C175.97 253.823 175.422 253.729 174.794 253.729C174.153 253.729 173.605 253.823 173.151 254.01C172.71 254.184 172.37 254.437 172.129 254.771C171.889 255.092 171.768 255.473 171.768 255.914C171.768 256.448 171.895 256.862 172.149 257.156C172.416 257.45 172.837 257.684 173.412 257.858C173.986 258.018 174.741 258.185 175.676 258.359C176.331 258.452 176.952 258.586 177.54 258.76C178.141 258.933 178.676 259.174 179.143 259.481C179.624 259.788 179.998 260.209 180.266 260.744C180.546 261.265 180.686 261.946 180.686 262.788C180.686 263.616 180.466 264.351 180.025 264.992C179.598 265.62 178.956 266.114 178.101 266.475C177.26 266.823 176.217 266.996 174.975 266.996ZM183.014 270.163V256.214H184.998L185.078 258.299H185.198C185.452 257.617 185.893 257.069 186.521 256.655C187.162 256.241 187.924 256.034 188.806 256.034C189.447 256.034 190.028 256.154 190.549 256.395C191.084 256.635 191.545 256.989 191.932 257.457C192.319 257.924 192.613 258.499 192.814 259.18C193.028 259.862 193.134 260.643 193.134 261.525C193.134 262.701 192.954 263.696 192.593 264.511C192.233 265.326 191.725 265.947 191.07 266.375C190.429 266.789 189.674 266.996 188.806 266.996C188.231 266.996 187.697 266.903 187.202 266.716C186.721 266.529 186.307 266.268 185.96 265.934C185.626 265.587 185.372 265.186 185.198 264.732H185.078V270.163H183.014ZM188.084 265.293C188.672 265.293 189.186 265.153 189.627 264.872C190.068 264.591 190.409 264.171 190.649 263.609C190.903 263.048 191.03 262.354 191.03 261.525C191.03 260.683 190.903 259.989 190.649 259.441C190.409 258.88 190.068 258.459 189.627 258.178C189.186 257.884 188.672 257.737 188.084 257.737C187.443 257.737 186.895 257.891 186.441 258.198C186 258.492 185.666 258.886 185.439 259.381C185.212 259.862 185.098 260.376 185.098 260.924V262.106C185.098 262.521 185.158 262.921 185.278 263.309C185.412 263.683 185.606 264.024 185.86 264.331C186.114 264.625 186.427 264.859 186.802 265.032C187.176 265.206 187.603 265.293 188.084 265.293ZM195.324 266.816V252.206H197.368V258.319H197.488C197.796 257.57 198.277 257.009 198.931 256.635C199.586 256.248 200.301 256.054 201.076 256.054C201.624 256.054 202.125 256.134 202.579 256.295C203.046 256.455 203.447 256.715 203.781 257.076C204.129 257.423 204.396 257.884 204.583 258.459C204.77 259.02 204.863 259.708 204.863 260.523V266.816H202.799V260.944C202.799 260.223 202.712 259.628 202.539 259.16C202.365 258.679 202.098 258.325 201.737 258.098C201.376 257.871 200.909 257.757 200.334 257.757C199.733 257.757 199.205 257.904 198.751 258.198C198.31 258.492 197.969 258.886 197.729 259.381C197.488 259.862 197.368 260.41 197.368 261.024V266.816H195.324ZM212.063 266.996C211.007 266.996 210.092 266.776 209.317 266.335C208.556 265.881 207.968 265.246 207.554 264.431C207.139 263.603 206.932 262.647 206.932 261.565C206.932 260.443 207.139 259.468 207.554 258.639C207.968 257.811 208.549 257.176 209.297 256.735C210.059 256.281 210.954 256.054 211.983 256.054C213.145 256.054 214.1 256.315 214.849 256.836C215.61 257.343 216.158 258.045 216.492 258.94C216.826 259.822 216.939 260.817 216.833 261.926H208.977C208.99 262.647 209.124 263.269 209.377 263.79C209.631 264.297 209.985 264.685 210.44 264.952C210.907 265.219 211.448 265.353 212.063 265.353C212.771 265.353 213.372 265.193 213.867 264.872C214.361 264.538 214.675 264.097 214.808 263.549H216.772C216.679 264.244 216.418 264.852 215.991 265.373C215.563 265.881 215.009 266.281 214.327 266.575C213.659 266.856 212.905 266.996 212.063 266.996ZM208.997 260.764L208.796 260.463H215.009L214.808 260.804C214.835 260.069 214.722 259.474 214.468 259.02C214.227 258.552 213.887 258.212 213.446 257.998C213.018 257.784 212.524 257.677 211.963 257.677C211.375 257.677 210.86 257.804 210.419 258.058C209.979 258.299 209.638 258.653 209.397 259.12C209.157 259.588 209.023 260.136 208.997 260.764ZM219.064 266.816V256.214H220.908L221.008 258.098H221.108C221.335 257.417 221.729 256.909 222.29 256.575C222.852 256.241 223.479 256.074 224.174 256.074C224.294 256.074 224.401 256.081 224.495 256.094C224.602 256.094 224.702 256.101 224.795 256.114V258.058C224.715 258.045 224.615 258.038 224.495 258.038C224.388 258.038 224.274 258.038 224.154 258.038C223.526 258.038 222.992 258.145 222.551 258.359C222.11 258.572 221.769 258.886 221.529 259.301C221.288 259.701 221.148 260.189 221.108 260.764V266.816H219.064ZM230.675 266.996C229.619 266.996 228.704 266.776 227.929 266.335C227.168 265.881 226.58 265.246 226.166 264.431C225.752 263.603 225.544 262.647 225.544 261.565C225.544 260.443 225.752 259.468 226.166 258.639C226.58 257.811 227.161 257.176 227.909 256.735C228.671 256.281 229.566 256.054 230.595 256.054C231.757 256.054 232.712 256.315 233.461 256.836C234.222 257.343 234.77 258.045 235.104 258.94C235.438 259.822 235.552 260.817 235.445 261.926H227.589C227.602 262.647 227.736 263.269 227.989 263.79C228.243 264.297 228.597 264.685 229.052 264.952C229.519 265.219 230.06 265.353 230.675 265.353C231.383 265.353 231.984 265.193 232.479 264.872C232.973 264.538 233.287 264.097 233.421 263.549H235.385C235.291 264.244 235.03 264.852 234.603 265.373C234.175 265.881 233.621 266.281 232.94 266.575C232.272 266.856 231.517 266.996 230.675 266.996ZM227.609 260.764L227.408 260.463H233.621L233.421 260.804C233.447 260.069 233.334 259.474 233.08 259.02C232.839 258.552 232.499 258.212 232.058 257.998C231.63 257.784 231.136 257.677 230.575 257.677C229.987 257.677 229.472 257.804 229.032 258.058C228.591 258.299 228.25 258.653 228.01 259.12C227.769 259.588 227.635 260.136 227.609 260.764ZM242.478 266.816V252.206H249.292C250.094 252.206 250.795 252.293 251.396 252.467C252.011 252.64 252.519 252.901 252.92 253.248C253.32 253.596 253.621 254.023 253.821 254.531C254.035 255.025 254.142 255.593 254.142 256.234C254.142 257.116 253.915 257.871 253.461 258.499C253.02 259.127 252.385 259.548 251.557 259.762V259.902C252.358 260.035 252.933 260.343 253.28 260.824C253.628 261.291 253.801 261.946 253.801 262.788V265.233C253.801 265.473 253.808 265.727 253.821 265.994C253.848 266.261 253.922 266.535 254.042 266.816H251.837C251.744 266.616 251.684 266.382 251.657 266.114C251.63 265.834 251.617 265.527 251.617 265.193V263.168C251.617 262.661 251.543 262.24 251.396 261.906C251.25 261.572 250.989 261.325 250.615 261.164C250.241 260.991 249.706 260.904 249.012 260.904H244.663V266.816H242.478ZM244.663 259.14H248.992C250.034 259.14 250.775 258.893 251.216 258.399C251.67 257.904 251.897 257.277 251.897 256.515C251.897 255.927 251.777 255.453 251.537 255.092C251.296 254.731 250.956 254.471 250.515 254.31C250.087 254.137 249.579 254.05 248.992 254.05H244.663V259.14ZM259.993 266.996C259.352 266.996 258.764 266.876 258.23 266.636C257.709 266.395 257.254 266.048 256.867 265.593C256.479 265.126 256.179 264.551 255.965 263.87C255.765 263.189 255.664 262.4 255.664 261.505C255.664 260.329 255.845 259.334 256.205 258.519C256.58 257.704 257.087 257.089 257.729 256.675C258.383 256.248 259.138 256.034 259.993 256.034C260.581 256.034 261.115 256.127 261.596 256.315C262.091 256.502 262.505 256.769 262.839 257.116C263.186 257.45 263.44 257.844 263.601 258.299H263.721L263.801 256.214H265.785V266.816H263.721V264.712H263.601C263.347 265.393 262.906 265.947 262.278 266.375C261.65 266.789 260.888 266.996 259.993 266.996ZM260.715 265.293C261.369 265.293 261.917 265.139 262.358 264.832C262.799 264.525 263.133 264.13 263.36 263.649C263.587 263.168 263.701 262.654 263.701 262.106V260.904C263.701 260.356 263.587 259.842 263.36 259.361C263.133 258.88 262.799 258.486 262.358 258.178C261.917 257.871 261.369 257.717 260.715 257.717C260.127 257.717 259.612 257.864 259.172 258.158C258.731 258.439 258.39 258.86 258.149 259.421C257.909 259.969 257.789 260.663 257.789 261.505C257.789 262.333 257.909 263.028 258.149 263.589C258.39 264.15 258.731 264.578 259.172 264.872C259.612 265.153 260.127 265.293 260.715 265.293ZM271.703 266.816C271.115 266.816 270.654 266.736 270.32 266.575C269.986 266.402 269.752 266.148 269.618 265.814C269.485 265.48 269.418 265.079 269.418 264.611V257.898H267.414V256.214H269.418V253.148L271.482 252.908V256.214H273.827V257.898H271.482V264.231C271.482 264.591 271.549 264.832 271.683 264.952C271.816 265.059 272.05 265.112 272.384 265.112H273.827V266.816H271.703ZM275.879 266.816V256.214H277.943V266.816H275.879ZM275.879 254.591V252.206H277.943V254.591H275.879ZM280.811 266.816V256.214H282.775L282.855 258.319H282.975C283.282 257.57 283.763 257.009 284.418 256.635C285.073 256.248 285.787 256.054 286.562 256.054C287.11 256.054 287.611 256.134 288.065 256.295C288.533 256.455 288.934 256.715 289.268 257.076C289.615 257.423 289.882 257.884 290.069 258.459C290.256 259.02 290.35 259.708 290.35 260.523V266.816H288.286V260.944C288.286 260.223 288.199 259.628 288.025 259.16C287.852 258.679 287.584 258.325 287.224 258.098C286.863 257.871 286.395 257.757 285.821 257.757C285.22 257.757 284.692 257.904 284.238 258.198C283.797 258.492 283.456 258.886 283.215 259.381C282.975 259.862 282.855 260.41 282.855 261.024V266.816H280.811ZM297.329 270.363C296.487 270.363 295.752 270.236 295.124 269.982C294.496 269.742 293.995 269.394 293.621 268.94C293.247 268.486 293.02 267.945 292.94 267.317H294.944C294.997 267.624 295.131 267.891 295.345 268.119C295.559 268.359 295.832 268.539 296.166 268.66C296.514 268.78 296.915 268.84 297.369 268.84C298.01 268.84 298.545 268.747 298.972 268.559C299.4 268.386 299.727 268.099 299.954 267.698C300.181 267.297 300.295 266.769 300.295 266.114V264.05H300.155C299.914 264.692 299.487 265.213 298.872 265.613C298.257 266.001 297.529 266.195 296.688 266.195C296.046 266.195 295.458 266.088 294.924 265.874C294.403 265.647 293.955 265.32 293.581 264.892C293.207 264.451 292.92 263.917 292.719 263.289C292.519 262.647 292.419 261.926 292.419 261.124C292.419 260.042 292.599 259.12 292.96 258.359C293.321 257.597 293.822 257.023 294.463 256.635C295.104 256.234 295.853 256.034 296.708 256.034C297.549 256.034 298.271 256.228 298.872 256.615C299.487 257.003 299.914 257.524 300.155 258.178H300.295L300.335 256.214H302.339V265.834C302.339 266.662 302.219 267.364 301.978 267.938C301.738 268.526 301.397 268.994 300.956 269.341C300.515 269.702 299.981 269.962 299.353 270.123C298.738 270.283 298.064 270.363 297.329 270.363ZM297.389 264.591C298.004 264.591 298.525 264.451 298.952 264.171C299.38 263.89 299.707 263.536 299.934 263.108C300.161 262.667 300.282 262.213 300.295 261.746L300.275 260.463C300.261 260.009 300.148 259.568 299.934 259.14C299.72 258.699 299.4 258.345 298.972 258.078C298.558 257.798 298.037 257.657 297.409 257.657C296.821 257.657 296.313 257.791 295.886 258.058C295.458 258.325 295.124 258.719 294.884 259.241C294.657 259.762 294.543 260.39 294.543 261.124C294.543 261.873 294.657 262.507 294.884 263.028C295.124 263.536 295.458 263.923 295.886 264.191C296.313 264.458 296.814 264.591 297.389 264.591Z" fill="black"/>
</g>
<rect x="0.826923" y="0.826923" width="468.038" height="428.346" rx="32.25" stroke="#D7D4FE" stroke-width="1.65385"/>
<defs>
<clipPath id="clip0_105_9704">
<rect width="469.692" height="430" rx="33.0769" fill="white"/>
</clipPath>
<clipPath id="clip1_105_9704">
<rect width="26.4615" height="26.4615" fill="white" transform="translate(363.846 36.3845)"/>
</clipPath>
</defs>
</svg>
