<svg width="103" height="172" viewBox="0 0 103 172" fill="none" xmlns="http://www.w3.org/2000/svg">
<circle cx="3" cy="4" r="4" fill="#7B74FF"/>
<circle cx="27" cy="4" r="4" fill="#7B74FF"/>
<circle cx="51" cy="4" r="4" fill="#7B74FF"/>
<circle cx="75" cy="4" r="4" fill="#7B74FF"/>
<circle cx="99" cy="4" r="4" fill="#7B74FF"/>
<circle cx="3" cy="28" r="4" fill="#7B74FF"/>
<circle cx="27" cy="28" r="4" fill="#7B74FF"/>
<circle cx="51" cy="28" r="4" fill="#7B74FF"/>
<circle cx="75" cy="28" r="4" fill="#7B74FF"/>
<circle cx="99" cy="28" r="4" fill="#7B74FF"/>
<circle cx="3" cy="52" r="4" fill="#7B74FF"/>
<circle cx="27" cy="52" r="4" fill="#7B74FF"/>
<circle cx="51" cy="52" r="4" fill="#7B74FF"/>
<circle cx="75" cy="52" r="4" fill="#7B74FF"/>
<circle cx="99" cy="52" r="4" fill="#7B74FF"/>
<circle cx="3" cy="76" r="4" fill="#7B74FF"/>
<circle cx="27" cy="76" r="4" fill="#7B74FF"/>
<circle cx="51" cy="76" r="4" fill="#7B74FF"/>
<circle cx="75" cy="76" r="4" fill="#7B74FF"/>
<circle cx="99" cy="76" r="4" fill="#7B74FF"/>
<circle cx="3" cy="96" r="4" fill="#7B74FF"/>
<circle cx="27" cy="96" r="4" fill="#7B74FF"/>
<circle cx="51" cy="96" r="4" fill="#7B74FF"/>
<circle cx="75" cy="96" r="4" fill="#7B74FF"/>
<circle cx="99" cy="96" r="4" fill="#7B74FF"/>
<circle cx="3" cy="120" r="4" fill="#7B74FF"/>
<circle cx="27" cy="120" r="4" fill="#7B74FF"/>
<circle cx="51" cy="120" r="4" fill="#7B74FF"/>
<circle cx="75" cy="120" r="4" fill="#7B74FF"/>
<circle cx="99" cy="120" r="4" fill="#7B74FF"/>
<circle cx="3" cy="144" r="4" fill="#7B74FF"/>
<circle cx="27" cy="144" r="4" fill="#7B74FF"/>
<circle cx="51" cy="144" r="4" fill="#7B74FF"/>
<circle cx="75" cy="144" r="4" fill="#7B74FF"/>
<circle cx="99" cy="144" r="4" fill="#7B74FF"/>
<circle cx="3" cy="168" r="4" fill="#7B74FF"/>
<circle cx="27" cy="168" r="4" fill="#7B74FF"/>
<circle cx="51" cy="168" r="4" fill="#7B74FF"/>
<circle cx="75" cy="168" r="4" fill="#7B74FF"/>
<circle cx="99" cy="168" r="4" fill="#7B74FF"/>
</svg>
