<svg width="40" height="40" viewBox="0 0 40 40" fill="none" xmlns="http://www.w3.org/2000/svg">
<circle cx="20" cy="20" r="20" fill="#7A77FF"/>
<path d="M9.03207 25.5879L9.03207 13.9239H11.5281V18.9159L11.2241 18.6119H17.3201L17.0161 18.9159V13.9239H19.5121V25.5879H17.0161V20.4359L17.3201 20.7399H11.2241L11.5281 20.4359V25.5879H9.03207ZM22.3364 25.5879V13.9239H28.0964C28.7684 13.9239 29.3604 13.9986 29.8724 14.1479C30.3844 14.2866 30.8058 14.4999 31.1364 14.7879C31.4778 15.0759 31.7338 15.4279 31.9044 15.8439C32.0751 16.2492 32.1604 16.7239 32.1604 17.2679C32.1604 17.9612 31.9791 18.5586 31.6164 19.0599C31.2538 19.5612 30.7631 19.8919 30.1444 20.0519V20.1639C30.7311 20.2812 31.1631 20.5266 31.4404 20.8999C31.7284 21.2626 31.8724 21.7692 31.8724 22.4199V24.2439C31.8724 24.4572 31.8778 24.6812 31.8884 24.9159C31.9098 25.1399 31.9738 25.3639 32.0804 25.5879H29.5684C29.5044 25.4492 29.4564 25.2626 29.4244 25.0279C29.3924 24.7932 29.3764 24.5319 29.3764 24.2439V22.8519C29.3764 22.5212 29.3231 22.2439 29.2164 22.0199C29.1204 21.7852 28.9444 21.6092 28.6884 21.4919C28.4324 21.3639 28.0698 21.2999 27.6004 21.2999H24.8324V25.5879H22.3364ZM24.8324 19.3159H27.7284C28.4111 19.3159 28.8964 19.1559 29.1844 18.8359C29.4724 18.5159 29.6164 18.1052 29.6164 17.6039C29.6164 17.2092 29.5364 16.8946 29.3764 16.6599C29.2164 16.4252 28.9924 16.2546 28.7044 16.1479C28.4271 16.0412 28.1018 15.9879 27.7284 15.9879H24.8324V19.3159Z" fill="white"/>
</svg>
