<svg width="19" height="19" viewBox="0 0 19 19" fill="none" xmlns="http://www.w3.org/2000/svg">
<path fill-rule="evenodd" clip-rule="evenodd" d="M9.63887 18.0597C14.5352 18.0597 18.5045 14.0904 18.5045 9.19404C18.5045 4.29767 14.5352 0.328369 9.63887 0.328369C4.74249 0.328369 0.773193 4.29767 0.773193 9.19404C0.773193 14.0904 4.74249 18.0597 9.63887 18.0597ZM13.71 6.9426C13.9355 6.65272 13.8832 6.23497 13.5934 6.00951C13.3035 5.78405 12.8857 5.83627 12.6603 6.12615L9.1078 10.6936C9.02881 10.7952 8.88022 10.8084 8.78458 10.7223L6.53741 8.69984C6.26446 8.45417 5.84403 8.4763 5.59837 8.74926C5.3527 9.02222 5.37483 9.44264 5.64779 9.68831L7.89496 11.7108C8.56443 12.3133 9.60456 12.221 10.1575 11.5101L13.71 6.9426Z" fill="#7A77FF"/>
</svg>
