<svg width="14" height="18" viewBox="0 0 14 18" fill="none" xmlns="http://www.w3.org/2000/svg">
<path fill-rule="evenodd" clip-rule="evenodd" d="M7 1.54286C6.2726 1.54286 5.56902 1.83981 5.04572 2.37806C4.5215 2.91726 4.22222 3.65436 4.22222 4.42857V7.31429H9.77778V4.42857C9.77778 3.65436 9.4785 2.91726 8.95428 2.37806C8.43098 1.83981 7.7274 1.54286 7 1.54286ZM11.3333 7.31429V4.42857C11.3333 3.26291 10.8834 2.1396 10.074 1.3071C9.26374 0.473658 8.15859 0 7 0C5.84141 0 4.73626 0.473658 3.92596 1.3071C3.1166 2.1396 2.66667 3.26291 2.66667 4.42857V7.31429H2.55556C1.11774 7.31429 0 8.50503 0 9.91429V15.4C0 16.8093 1.11774 18 2.55556 18H11.4444C12.8823 18 14 16.8093 14 15.4V9.91429C14 8.50503 12.8823 7.31429 11.4444 7.31429H11.3333ZM2.55556 8.85714C2.02969 8.85714 1.55556 9.30376 1.55556 9.91429V15.4C1.55556 16.0105 2.02969 16.4571 2.55556 16.4571H11.4444C11.9703 16.4571 12.4444 16.0105 12.4444 15.4V9.91429C12.4444 9.30376 11.9703 8.85714 11.4444 8.85714H2.55556ZM7 12.5143C6.96505 12.5143 6.88889 12.5516 6.88889 12.6571C6.88889 12.7627 6.96505 12.8 7 12.8C7.03495 12.8 7.11111 12.7627 7.11111 12.6571C7.11111 12.5516 7.03495 12.5143 7 12.5143ZM5.33333 12.6571C5.33333 11.7528 6.05311 10.9714 7 10.9714C7.94689 10.9714 8.66667 11.7528 8.66667 12.6571C8.66667 13.5615 7.94689 14.3429 7 14.3429C6.05311 14.3429 5.33333 13.5615 5.33333 12.6571Z" fill="#A3AED0"/>
</svg>
