<svg width="18" height="14" viewBox="0 0 18 14" fill="none" xmlns="http://www.w3.org/2000/svg">
<path fill-rule="evenodd" clip-rule="evenodd" d="M1.71371 2.19309L9 6.92764L16.2863 2.19309C16.1352 1.84174 15.779 1.59494 15.3636 1.59494H2.63636C2.22102 1.59494 1.86482 1.84174 1.71371 2.19309ZM16.3636 4.0597L9.45385 8.54961C9.17902 8.72819 8.82098 8.72819 8.54615 8.54961L1.63636 4.0597V11.4304C1.63636 11.9687 2.08408 12.4051 2.63636 12.4051H15.3636C15.9159 12.4051 16.3636 11.9687 16.3636 11.4304V4.0597ZM0 2.56962C0 1.15046 1.18034 0 2.63636 0H15.3636C16.8197 0 18 1.15046 18 2.56962V11.4304C18 12.8495 16.8197 14 15.3636 14H2.63636C1.18034 14 0 12.8495 0 11.4304V2.56962Z" fill="#A3AED0"/>
</svg>
