<svg width="140" height="143" viewBox="0 0 140 143" fill="none" xmlns="http://www.w3.org/2000/svg">
<path d="M140 71.4596C140 90.4388 132.516 107.733 120.365 120.415C107.597 133.718 89.7233 141.966 70 141.966C50.1887 141.966 32.3145 133.718 19.6352 120.415C7.48427 107.733 0 90.4388 0 71.4596C0 32.5257 31.3459 0.952823 70 0.952823C108.654 0.864135 140 32.437 140 71.4596Z" fill="#E3E1FF"/>
<path d="M56.0874 32.6143C56.0874 29.4216 58.6409 26.8496 61.8107 26.8496H76.6031C85.8484 26.8496 93.2446 34.3881 93.2446 43.6116V61.6152H58.1126L56.0874 32.6143Z" fill="#292566"/>
<path d="M50.6286 63.7438H45.6978V39.532C45.6978 34.1221 51.1569 30.4859 56.1757 32.6144C57.2323 38.6452 50.6286 63.7438 50.6286 63.7438Z" fill="#292566"/>
<path d="M80.6539 82.8999C79.069 89.7289 74.9306 94.6954 69.9998 94.6954C65.069 94.6954 60.8426 89.7289 59.3457 82.8999L60.5784 78.2882L60.9306 76.8691H79.157L80.4778 82.1904L80.5658 82.6338L80.6539 82.8999Z" fill="#D2D4DA"/>
<path d="M92.9815 56.8255C102.051 46.5377 95.9752 71.6364 90.9563 68.7097C82.1513 63.5658 92.9815 56.8255 92.9815 56.8255Z" fill="#F4F4F4"/>
<path d="M120.364 120.415C115.61 125.381 110.239 129.55 104.251 133.008C95.006 138.241 84.528 141.434 73.3456 141.966C72.201 142.055 71.0563 142.055 69.9997 142.055C64.3645 142.055 58.9054 141.345 53.6224 140.104C46.3142 138.33 39.4462 135.403 33.1947 131.501C28.1758 128.397 23.5972 124.672 19.5469 120.415L20.7796 115.626C22.6287 108.442 28.2639 102.855 35.3959 101.081L36.1884 100.904L44.9934 98.775L47.3708 98.2429C48.3393 97.9768 49.3079 97.6221 50.2765 97.1786C51.0689 96.8239 51.7733 96.3805 52.4777 95.8483C53.1821 95.3162 53.8865 94.6954 54.5029 94.0746C56.1758 92.3008 57.4085 90.0836 58.0249 87.6004L58.9934 83.9642L59.2576 82.9886V82.8999L60.4903 78.2882L60.8425 76.8691H79.1569L80.5658 82.1904L80.6538 82.6338L80.7418 82.8999V82.9886L81.006 83.9642L81.9746 87.6004C82.8551 90.9705 84.8802 93.8972 87.6098 95.8483C89.1066 96.9126 90.7796 97.7108 92.7167 98.1542L94.9179 98.6863L104.692 101.081C111.912 102.766 117.459 108.353 119.308 115.626L120.364 120.415Z" fill="#F4F4F4"/>
<path d="M80.6539 82.8999C79.069 89.7289 74.9306 94.6954 69.9998 94.6954C65.069 94.6954 60.8426 89.7289 59.3457 82.8999L60.5784 78.2882L60.9306 76.8691H79.157L80.4778 82.1904L80.5658 82.6338L80.6539 82.8999Z" fill="#D2D4DA"/>
<path d="M47.0191 56.8255C37.9499 46.5377 44.0254 71.6364 49.0443 68.7097C57.8493 63.5658 47.0191 56.8255 47.0191 56.8255Z" fill="#F4F4F4"/>
<path d="M91.1325 49.3762C91.1325 50.1744 91.0444 50.8839 91.0444 51.6821C90.9564 52.3916 90.6922 55.3183 90.0759 59.1319C89.8117 61.2604 89.3715 63.5663 88.9312 65.8722V65.9608C87.7866 71.6369 86.2017 77.3129 84.1765 79.4414C81.8872 81.7473 79.9501 83.8758 77.8369 85.4722C75.7237 86.9798 73.3463 87.9554 70.0004 87.9554C66.6545 87.9554 64.2771 86.9798 62.1639 85.4722C60.0507 83.9645 58.2017 81.836 55.8243 79.4414C53.7991 77.4016 52.2142 71.6369 51.0696 65.9608C50.8935 65.2513 50.8054 64.4532 50.6293 63.7437C50.5413 63.4776 50.5413 63.1228 50.4532 62.8568C50.2771 61.6151 50.013 60.2848 49.8369 59.1319C49.2205 54.7862 48.8683 51.5934 48.8683 51.5934C48.7803 50.8839 48.7803 50.1744 48.7803 49.4649C48.7803 49.2876 48.7803 49.1102 48.7803 48.9328C48.7803 47.2477 49.0444 45.6514 49.4847 44.055C49.4847 43.9663 49.4847 43.8776 49.5727 43.8776C51.9501 35.1862 59.5224 28.8007 68.7677 28.2686C69.208 28.2686 69.5602 28.2686 70.0004 28.2686C75.8117 28.2686 81.1828 30.6631 84.969 34.4767C88.3149 37.8468 90.5161 42.2812 91.0444 47.159C91.1325 47.7799 91.1325 48.578 91.1325 49.3762Z" fill="#F4F4F4"/>
<path d="M73.2582 68.5326C73.2582 70.0403 71.7614 71.1933 69.9123 71.1933C68.0633 71.1933 66.5664 70.0403 66.5664 68.5326C66.5664 68.3552 66.5664 68.1779 66.6544 68.0005C66.9186 69.2421 68.3274 70.129 69.9123 70.129C71.4972 70.129 72.906 69.2421 73.1702 68.0005C73.2582 68.1779 73.2582 68.3552 73.2582 68.5326Z" fill="#DEDFE0"/>
<path d="M91.7481 49.5533C91.7481 50.3515 91.6601 51.1497 91.572 51.9479C91.484 52.6574 89.9871 59.1316 89.9871 59.1316C59.5217 51.6818 57.1444 38.6447 57.1444 38.6447C57.2324 51.061 49.7481 59.1316 49.7481 59.1316C49.1318 54.6972 48.1632 51.7705 48.1632 51.7705C48.0752 51.061 48.0752 50.3515 48.0752 49.5533C48.0752 49.376 48.0752 49.1986 48.0752 49.0212C48.1632 47.3362 48.3393 45.6511 48.7796 43.966C48.7796 43.8773 48.7796 43.7886 48.8676 43.7886C51.3331 34.8312 59.1695 28.1796 68.679 27.6475C69.1192 27.6475 69.4714 27.6475 69.9117 27.6475C75.8991 27.6475 81.3582 30.1307 85.3205 34.1217C88.7544 37.5805 91.0437 42.1036 91.572 47.2475C91.7481 47.957 91.7481 48.7551 91.7481 49.5533Z" fill="#292566"/>
<path d="M120.364 120.415C107.597 133.718 89.7228 141.966 69.9996 141.966C50.1882 141.966 32.314 133.718 19.6348 120.415L20.8675 115.626C22.7165 108.442 28.3517 102.855 35.4838 101.081L45.0813 98.7754L47.4587 98.2433C48.5153 97.9772 49.5719 97.6225 50.5404 97.0903C55.3832 102.323 62.3392 105.604 69.9996 105.604C77.6599 105.604 84.6159 102.323 89.5467 97.0903C90.5153 97.5338 91.5719 97.9772 92.6285 98.2433L94.7417 98.7754L104.603 101.17C111.735 102.855 117.371 108.442 119.22 115.715L120.364 120.415Z" fill="#B4B0FF"/>
<path d="M94.653 98.7761C92.5398 101.437 84.6153 109.685 69.999 110.305C53.1813 111.015 45.521 99.5743 44.9927 98.8647L47.37 98.3326C48.4266 98.0666 49.4832 97.7118 50.4518 97.1797C55.2945 102.412 62.2505 105.694 69.9109 105.694C77.5713 105.694 84.5273 102.412 89.4581 97.1797C90.4266 97.6231 91.4832 98.0666 92.5398 98.3326L94.653 98.7761Z" fill="#817BFF"/>
<circle cx="114" cy="124" r="15" fill="#7976FF" stroke="white" stroke-width="2"/>
<g clip-path="url(#clip0_293_11525)">
<path d="M114 117V131" stroke="white" stroke-width="1.5" stroke-linecap="round" stroke-linejoin="round"/>
<path d="M107 124H121" stroke="white" stroke-width="1.5" stroke-linecap="round" stroke-linejoin="round"/>
</g>
<defs>
<clipPath id="clip0_293_11525">
<rect width="24" height="24" fill="white" transform="translate(102 112)"/>
</clipPath>
</defs>
</svg>
