<svg width="14" height="18" viewBox="0 0 14 18" fill="none" xmlns="http://www.w3.org/2000/svg">
<path fill-rule="evenodd" clip-rule="evenodd" d="M7 1.63636C5.38717 1.63636 4.07971 2.89811 4.07971 4.45455C4.07971 6.01098 5.38717 7.27273 7 7.27273C8.61283 7.27273 9.92029 6.01098 9.92029 4.45455C9.92029 2.89811 8.61283 1.63636 7 1.63636ZM2.38406 4.45455C2.38406 1.99437 4.45069 0 7 0C9.54931 0 11.6159 1.99437 11.6159 4.45455C11.6159 6.91472 9.54931 8.90909 7 8.90909C4.45069 8.90909 2.38406 6.91472 2.38406 4.45455ZM5.11594 12.5455C4.34143 12.5455 3.59865 12.8424 3.05099 13.3709C2.50332 13.8994 2.19565 14.6162 2.19565 15.3636V17.1818C2.19565 17.6337 1.81607 18 1.34783 18C0.879585 18 0.5 17.6337 0.5 17.1818V15.3636C0.5 14.1822 0.986321 13.0492 1.85198 12.2138C2.71763 11.3784 3.89172 10.9091 5.11594 10.9091H8.88406C10.1083 10.9091 11.2824 11.3784 12.148 12.2138C13.0137 13.0492 13.5 14.1822 13.5 15.3636V17.1818C13.5 17.6337 13.1204 18 12.6522 18C12.1839 18 11.8043 17.6337 11.8043 17.1818V15.3636C11.8043 14.6162 11.4967 13.8994 10.949 13.3709C10.4014 12.8424 9.65857 12.5455 8.88406 12.5455H5.11594Z" fill="#A3AED0"/>
</svg>
